<svg xmlns="http://www.w3.org/2000/svg" xmlns:xlink="http://www.w3.org/1999/xlink" width="720" height="720" overflow="hidden"><clipPath id="rounded-corners"><rect width="720" height="720" x="0" y="0" rx="144"/></clipPath><g clip-path="url(#rounded-corners)"><g transform="rotate(40 360 360) scale(1.41) translate(-105 -105)"><rect width="163" height="720" x="0" y="0" fill="#ED7D31"/><rect width="202" height="720" x="163" y="0" fill="#4472C4"/><rect width="86" height="720" x="365" y="0" fill="#FFC000"/><rect width="48" height="720" x="451" y="0" fill="#404040"/><rect width="221" height="720" x="499" y="0" fill="#70AD47"/><rect width="720" height="720" x="0" y="0" fill="#1B1B1B" fill-opacity=".6"/></g></g><path fill="#E6C74C" d="M 0 -200 175 0 90 0 90 200 -90 200 -90 0 -175 0 0 -200Z" transform="rotate(180) translate(-255,-475)"/><path fill="#E6C74C" d="M 0 -200 175 0 90 0 90 200 -90 200 -90 0 -175 0 0 -200Z" transform="translate( 465, 245)"/></svg>