<?xml version="1.0" standalone="no"?>
<!DOCTYPE svg PUBLIC "-//W3C//DTD SVG 20010904//EN"
 "http://www.w3.org/TR/2001/REC-SVG-20010904/DTD/svg10.dtd">
<svg version="1.0" xmlns="http://www.w3.org/2000/svg"
 width="260.000000pt" height="260.000000pt" viewBox="0 0 260.000000 260.000000"
 preserveAspectRatio="xMidYMid meet">
<metadata>
Created by potrace 1.11, written by Peter Selinger 2001-2013
</metadata>
<g transform="translate(0.000000,260.000000) scale(0.100000,-0.100000)"
fill="#000000" stroke="none">
<path d="M1150 2445 c-131 -16 -178 -27 -281 -65 -302 -110 -539 -348 -650
-650 -61 -169 -90 -395 -70 -548 19 -142 36 -219 70 -312 132 -360 444 -625
826 -701 94 -19 416 -19 510 0 326 65 610 273 763 561 136 255 171 537 107
851 -75 362 -343 671 -694 799 -97 35 -131 44 -270 64 -121 19 -168 19 -311 1z
m50 -1711 l0 -467 -58 6 c-118 13 -323 100 -442 190 -131 98 -245 229 -318
367 -52 97 -101 238 -109 312 l-6 58 467 0 466 0 0 -466z m1127 408 c-13 -118
-100 -323 -190 -442 -98 -131 -229 -245 -367 -318 -97 -52 -238 -101 -312
-109 l-58 -6 0 467 0 466 466 0 467 0 -6 -58z"/>
</g>
</svg>
