<svg xmlns="http://www.w3.org/2000/svg" width="933.333" height="933.333" preserveAspectRatio="xMidYMid meet" version="1.0" viewBox="0 0 700 700"><metadata>Created by potrace 1.14, written by Peter Selinger 2001-2017</metadata><g fill="#000" stroke="none"><path d="M1236 6989 c-314 -36 -601 -176 -826 -403 -198 -199 -319 -424 -382 -709 l-23 -102 0 -2275 0 -2275 23 -102 c127 -577 553 -992 1127 -1099 96 -18 193 -19 2360 -19 l2260 0 102 23 c286 63 515 187 713 386 198 199 319 424 382 709 l23 102 0 2265 c0 2520 5 2315 -67 2543 -66 212 -171 380 -343 553 -205 206 -411 319 -703 386 l-97 22 -2240 2 c-1232 1 -2271 -2 -2309 -7z m4697 -2041 c152 -174 277 -319 277 -322 0 -3 -182 -6 -403 -6 l-404 0 -7 -647 c-4 -357 -6 -767 -6 -913 0 -146 0 -292 0 -325 l0 -60 -870 -3 -870 -3 0 976 0 975 -412 2 -411 3 847 968 846 967 568 -647 c312 -357 692 -791 845 -965z m-2581 -1590 l3 -973 408 -3 c225 -1 407 -6 405 -10 -6 -17 -1683 -1931 -1689 -1929 -8 2 -1689 1925 -1689 1932 0 3 183 6 408 7 l407 3 3 973 2 972 870 0 870 0 2 -972z" transform="translate(0.000000,700.000000) scale(0.100000,-0.100000)"/></g></svg>